<svg width="748" height="669" viewBox="0 0 748 669" fill="none" xmlns="http://www.w3.org/2000/svg">
<g clip-path="url(#clip0)">
<path d="M374.046 0.982029L736.821 183.371C739.837 184.888 742.339 187.261 744.013 190.193C745.686 193.125 746.458 196.485 746.231 199.854L725.154 512.058C725.059 513.458 724.619 514.813 723.873 516.002C723.128 517.191 722.099 518.177 720.879 518.871C719.66 519.566 718.287 519.948 716.884 519.982C715.481 520.017 714.091 519.704 712.839 519.071L341.792 329.707L360.841 8.59278C360.93 7.08438 361.393 5.62182 362.187 4.33647C362.982 3.05111 364.083 1.98322 365.392 1.22868C366.701 0.474142 368.178 0.056597 369.688 0.013546C371.198 -0.0295049 372.696 0.303285 374.046 0.982029V0.982029Z" fill="#D0CDE1"/>
<path d="M378.221 7.34409L732.085 185.254C735.027 186.733 737.468 189.047 739.101 191.907C740.733 194.767 741.486 198.045 741.264 201.331L720.705 505.867C720.613 507.233 720.184 508.554 719.456 509.714C718.729 510.874 717.725 511.835 716.536 512.513C715.346 513.19 714.007 513.563 712.639 513.597C711.27 513.631 709.914 513.325 708.692 512.707L346.759 327.995L365.34 14.7679C365.428 13.2966 365.879 11.8699 366.654 10.6161C367.429 9.36235 368.503 8.32069 369.78 7.58468C371.057 6.84868 372.497 6.44139 373.97 6.3994C375.444 6.3574 376.904 6.68202 378.221 7.34409V7.34409Z" fill="#3F3D56"/>
<path d="M393.729 30.9746L714.496 192.244C717.164 193.585 719.376 195.683 720.856 198.276C722.336 200.868 723.018 203.84 722.817 206.818L704.181 482.871C704.097 484.109 703.708 485.307 703.049 486.358C702.389 487.409 701.48 488.281 700.401 488.895C699.323 489.509 698.109 489.847 696.869 489.878C695.628 489.908 694.399 489.631 693.292 489.072L365.21 321.635L382.053 37.7041C382.132 36.3703 382.541 35.0771 383.244 33.9406C383.946 32.8041 384.92 31.8599 386.078 31.1927C387.235 30.5255 388.54 30.1563 389.876 30.1183C391.212 30.0802 392.536 30.3745 393.729 30.9746V30.9746Z" fill="white"/>
<path d="M62.7458 483.331L425.984 666.263C429.364 667.963 433.096 668.845 436.88 668.84C440.664 668.836 444.394 667.943 447.77 666.234L716.483 529.827C719.634 526.676 719.194 522.006 718.186 518.501C717.697 516.804 717.031 515.162 716.199 513.604L679.582 494.345L371.71 340.735L353.316 330.97C348.447 328.392 343.024 327.033 337.514 327.011C332.004 326.988 326.571 328.303 321.68 330.843L62.6322 465.405C60.984 466.258 59.6038 467.549 58.6441 469.137C57.6844 470.725 57.1827 472.548 57.1945 474.403C57.2062 476.258 57.731 478.074 58.7108 479.65C59.6905 481.226 61.087 482.5 62.7458 483.331V483.331Z" fill="#D0CDE1"/>
<path opacity="0.1" d="M62.7458 483.331L425.984 666.263C429.364 667.962 433.096 668.845 436.88 668.84C440.664 668.836 444.394 667.943 447.77 666.234L716.483 529.827C719.634 526.676 719.194 522.006 718.186 518.501L450.276 657.754C447.007 659.453 443.382 660.356 439.698 660.387C436.014 660.419 432.374 659.579 429.076 657.936L57.3241 472.729C56.9746 474.843 57.3126 477.015 58.2885 478.923C59.2644 480.831 60.8267 482.376 62.7458 483.331V483.331Z" fill="black"/>
<path opacity="0.1" d="M407.517 538.141L289.881 478.696C287.513 477.499 284.892 476.89 282.238 476.92C279.585 476.951 276.978 477.619 274.637 478.869L206.397 515.327C205.608 515.748 204.951 516.378 204.495 517.147C204.04 517.917 203.805 518.796 203.816 519.69C203.826 520.584 204.082 521.458 204.555 522.216C205.028 522.975 205.701 523.589 206.499 523.991L326.44 584.474C328.432 585.478 330.64 585.977 332.87 585.926C335.099 585.874 337.282 585.275 339.226 584.18L407.739 545.581C408.407 545.205 408.959 544.653 409.336 543.986C409.713 543.318 409.9 542.56 409.877 541.794C409.854 541.028 409.622 540.282 409.206 539.638C408.79 538.995 408.206 538.477 407.517 538.141V538.141Z" fill="black"/>
<path opacity="0.1" d="M684.565 528.199L557.979 595.448C556.523 596.222 554.902 596.635 553.252 596.651C551.603 596.668 549.974 596.288 548.502 595.544L190.842 414.674C189.834 414.164 188.988 413.384 188.398 412.421C187.809 411.457 187.499 410.349 187.504 409.22C187.509 408.09 187.828 406.985 188.426 406.026C189.024 405.068 189.876 404.295 190.888 403.795L314.503 342.612C316.366 341.69 318.418 341.213 320.497 341.221C322.575 341.228 324.624 341.719 326.48 342.654L684.51 523.046C684.985 523.285 685.385 523.651 685.666 524.102C685.948 524.554 686.1 525.074 686.105 525.606C686.111 526.138 685.971 526.661 685.699 527.118C685.427 527.576 685.035 527.95 684.565 528.199Z" fill="black"/>
<path d="M482.618 192.821L481.984 194.091L598.365 252.281L599 251.012L482.618 192.821Z" fill="#6C63FF"/>
<path d="M482.608 209.887L481.962 211.149L598.375 270.698L599.021 269.435L482.608 209.887Z" fill="#6C63FF"/>
<path d="M503.918 242.49L503.272 243.754L569.969 277.834L570.615 276.57L503.918 242.49Z" fill="#6C63FF"/>
<path d="M374.28 108.551L364 133L450.768 178.545L480 93" fill="#F2F2F2"/>
<path d="M448.768 163.545L487.099 73.352L399 30L362 118L448.768 163.545Z" fill="#6C63FF"/>
<path d="M396.918 64.4901L396.272 65.7542L462.969 99.8344L463.615 98.5703L396.918 64.4901Z" fill="white"/>
<path d="M391.918 76.4901L391.272 77.7542L457.969 111.834L458.615 110.57L391.918 76.4901Z" fill="white"/>
</g>
<defs>
<clipPath id="clip0">
<rect width="747.758" height="668.841" fill="white"/>
</clipPath>
</defs>
</svg>
