<svg xmlns="http://www.w3.org/2000/svg" width="13.245" height="13.245" viewBox="0 0 13.245 13.245">
  <path id="cross" d="M15.695,12.569h0L11.677,8.55l4.018-4.018h0a.415.415,0,0,0,0-.585l-1.9-1.9a.415.415,0,0,0-.585,0h0L9.193,6.067,5.175,2.049h0a.415.415,0,0,0-.585,0l-1.9,1.9a.415.415,0,0,0,0,.585h0L6.71,8.55,2.692,12.568h0a.415.415,0,0,0,0,.585l1.9,1.9a.415.415,0,0,0,.585,0h0l4.018-4.018,4.018,4.018h0a.415.415,0,0,0,.585,0l1.9-1.9a.415.415,0,0,0,0-.585Z" transform="translate(-2.571 -1.928)" fill="#060709"/>
</svg>
