<svg id="github-mobile" xmlns="http://www.w3.org/2000/svg" width="16" height="16" viewBox="0 0 16 16">
  <path id="Icon_awesome-github" data-name="Icon awesome-github" d="M5.352,13.446c0,.066-.074.119-.168.119S5,13.522,5,13.446s.074-.119.168-.119S5.352,13.37,5.352,13.446Zm-1-.149c-.023.066.042.142.139.162a.15.15,0,0,0,.2-.066c.019-.066-.042-.142-.139-.172A.164.164,0,0,0,4.348,13.3Zm1.426-.056c-.094.023-.158.086-.148.162s.094.109.19.086.158-.086.148-.152S5.868,13.231,5.774,13.241ZM7.9.563A7.835,7.835,0,0,0,0,8.635a8.282,8.282,0,0,0,5.468,7.914c.413.076.558-.185.558-.4s-.01-1.337-.01-2.031c0,0-2.258.5-2.732-.986,0,0-.368-.963-.9-1.211,0,0-.739-.519.052-.51a1.7,1.7,0,0,1,1.245.854,1.682,1.682,0,0,0,2.352.691,1.857,1.857,0,0,1,.516-1.115c-1.8-.205-3.623-.473-3.623-3.656A2.54,2.54,0,0,1,3.69,6.237,3.2,3.2,0,0,1,3.774,3.99C4.448,3.775,6,4.883,6,4.883a7.437,7.437,0,0,1,4.052,0S11.6,3.772,12.277,3.99a3.2,3.2,0,0,1,.084,2.246,2.6,2.6,0,0,1,.832,1.949c0,3.193-1.9,3.447-3.7,3.656a1.983,1.983,0,0,1,.548,1.535c0,1.115-.01,2.495-.01,2.766,0,.215.148.476.558.4A8.208,8.208,0,0,0,16,8.635,8.006,8.006,0,0,0,7.9.563ZM3.135,11.973c-.042.033-.032.109.023.172s.126.076.168.033.032-.109-.023-.172S3.177,11.93,3.135,11.973Zm-.348-.268c-.023.043.01.1.074.129A.1.1,0,0,0,3,11.811c.023-.043-.01-.1-.074-.129S2.81,11.672,2.787,11.705Zm1.045,1.178c-.052.043-.032.142.042.205s.168.086.21.033.023-.142-.042-.205S3.874,12.83,3.832,12.883ZM3.465,12.4c-.052.033-.052.119,0,.2s.139.109.181.076a.154.154,0,0,0,0-.205C3.6,12.387,3.516,12.354,3.465,12.4Z" transform="translate(0 -0.563)" fill="#060709"/>
</svg>
