<svg xmlns="http://www.w3.org/2000/svg" width="16" height="16" viewBox="0 0 16 16">
  <g id="instagram-mobile" transform="translate(0)">
    <path id="Icon_awesome-instagram" data-name="Icon awesome-instagram" d="M8,6.135a4.1,4.1,0,1,0,4.1,4.1A4.1,4.1,0,0,0,8,6.135ZM8,12.9a2.667,2.667,0,1,1,2.666-2.667A2.672,2.672,0,0,1,8,12.9Zm5.226-6.937a.957.957,0,1,1-.957-.957A.954.954,0,0,1,13.222,5.968Zm2.716.971a4.736,4.736,0,0,0-1.292-3.352,4.765,4.765,0,0,0-3.352-1.292c-1.321-.075-5.279-.075-6.6,0A4.758,4.758,0,0,0,1.343,3.583,4.751,4.751,0,0,0,.051,6.935c-.075,1.321-.075,5.28,0,6.6a4.736,4.736,0,0,0,1.292,3.352,4.771,4.771,0,0,0,3.352,1.292c1.321.075,5.279.075,6.6,0a4.733,4.733,0,0,0,3.352-1.292,4.767,4.767,0,0,0,1.292-3.352C16.013,12.216,16.013,8.26,15.939,6.939Zm-1.706,8.015a2.7,2.7,0,0,1-1.521,1.521C11.659,16.893,9.16,16.8,8,16.8s-3.666.093-4.715-.321a2.7,2.7,0,0,1-1.521-1.521c-.418-1.053-.321-3.552-.321-4.716s-.093-3.667.321-4.716A2.7,2.7,0,0,1,3.281,4C4.334,3.583,6.833,3.679,8,3.679s3.666-.093,4.715.321a2.7,2.7,0,0,1,1.521,1.521c.418,1.053.321,3.552.321,4.716S14.65,13.9,14.232,14.954Z" transform="translate(0.005 -2.238)" fill="#060709"/>
  </g>
</svg>
