<svg id="phone-mobile" xmlns="http://www.w3.org/2000/svg" width="19.779" height="34.374" viewBox="0 0 19.779 34.374">
  <path id="Icon_ionic-ios-phone-portrait" data-name="Icon ionic-ios-phone-portrait" d="M27.06,2.25H13.049a2.739,2.739,0,0,0-2.924,2.524V34.008a2.8,2.8,0,0,0,2.924,2.616h14A2.738,2.738,0,0,0,29.9,34.008V4.774A2.659,2.659,0,0,0,27.06,2.25ZM18.694,4.015h2.65a.334.334,0,0,1,.353.307.334.334,0,0,1-.353.307h-2.65a.334.334,0,0,1-.353-.307A.334.334,0,0,1,18.694,4.015Zm1.369,31.458A1.348,1.348,0,1,1,21.6,34.138,1.448,1.448,0,0,1,20.063,35.473Zm8.26-3.76H11.715a.167.167,0,0,1-.177-.153V6.317a.167.167,0,0,1,.177-.153H28.323a.167.167,0,0,1,.177.153V31.56A.167.167,0,0,1,28.323,31.713Z" transform="translate(-10.125 -2.25)" fill="#f3f3f3"/>
</svg>
