<svg width="863" height="574" viewBox="0 0 863 574" fill="none" xmlns="http://www.w3.org/2000/svg">
<g clip-path="url(#clip0)">
<path d="M105.422 505.622C105.422 524.503 94.1977 531.096 80.3529 531.096C80.0305 531.096 79.7099 531.092 79.3911 531.083C78.7499 531.069 78.1139 531.042 77.4867 530.996C64.9904 530.113 55.282 523.18 55.282 505.622C55.282 487.453 78.4973 464.525 80.2483 462.823L80.2518 462.821C80.318 462.755 80.3528 462.722 80.3528 462.722C80.3528 462.722 105.422 486.74 105.422 505.622Z" fill="#3F3D56"/>
<path d="M79.4381 528.207L88.6082 515.395L79.4155 529.613L79.3911 531.083C78.7499 531.069 78.1139 531.042 77.4867 530.996L78.4746 512.107L78.4676 511.961L78.485 511.933L78.5774 510.149L69.362 495.895L78.6052 508.811L78.6279 509.189L79.3754 494.917L71.486 480.189L79.4713 492.41L80.2484 462.823L80.2518 462.722V462.821L80.1229 486.153L87.9757 476.903L80.0898 488.162L79.8824 500.94L87.216 488.678L79.851 502.822L79.736 509.926L90.3819 492.856L79.696 512.405L79.4381 528.207Z" fill="#F2F2F2"/>
<path d="M101.985 515.012H59.5247C51.6285 515.012 45.2274 521.413 45.2274 529.309V530.951C45.2274 538.847 51.6285 545.248 59.5247 545.248H101.985C109.881 545.248 116.282 538.847 116.282 530.951V529.309C116.282 521.413 109.881 515.012 101.985 515.012Z" fill="#6C63FF"/>
<path d="M543.642 487.455H593.381V533.412C593.381 535.998 592.354 538.478 590.525 540.306C588.697 542.135 586.217 543.162 583.631 543.162H553.392C550.806 543.162 548.326 542.135 546.498 540.306C544.669 538.478 543.642 535.998 543.642 533.412V487.455Z" fill="#6C63FF"/>
<path d="M645.606 543.162H0V565.047H645.606V543.162Z" fill="#E0E0E0"/>
<path d="M618.25 565.047H27.3562V574H618.25V565.047Z" fill="#E0E0E0"/>
<path opacity="0.1" d="M618.25 565.047H27.3562V568.031H618.25V565.047Z" fill="black"/>
<g opacity="0.7">
<path opacity="0.7" d="M445.581 385.061H200.025C192.017 385.061 185.525 391.553 185.525 399.561V528.662C185.525 536.67 192.017 543.162 200.025 543.162H445.581C453.59 543.162 460.081 536.67 460.081 528.662V399.561C460.081 391.553 453.59 385.061 445.581 385.061Z" fill="url(#paint0_linear)"/>
<path d="M428.273 387.978H217.334C202.513 387.978 190.499 399.992 190.499 414.813V516.327C190.499 531.148 202.513 543.162 217.334 543.162H428.273C443.093 543.162 455.108 531.148 455.108 516.327V414.813C455.108 399.992 443.093 387.978 428.273 387.978Z" fill="#535461"/>
</g>
<g opacity="0.7">
<path opacity="0.7" d="M595.133 495.697V484.802H540.658V535.192C540.658 538.009 541.777 540.711 543.769 542.703C545.761 544.696 548.463 545.815 551.281 545.815H584.511C587.328 545.815 590.03 544.696 592.022 542.703C594.014 540.711 595.133 538.009 595.133 535.192V524.025C598.89 524.025 602.492 522.532 605.149 519.876C607.805 517.22 609.297 513.617 609.297 509.861C609.297 506.105 607.805 502.502 605.149 499.846C602.492 497.19 598.89 495.697 595.133 495.697V495.697ZM595.133 518.577V501.145C597.443 501.147 599.658 502.067 601.291 503.701C602.923 505.335 603.84 507.551 603.84 509.861C603.84 512.171 602.923 514.387 601.291 516.021C599.658 517.655 597.443 518.575 595.133 518.577V518.577Z" fill="url(#paint1_linear)"/>
</g>
<path d="M553.457 450.373C553.032 450.387 552.615 450.494 552.235 450.686C551.856 450.879 551.523 451.153 551.261 451.488C550.609 452.671 551.791 454.005 552.87 454.817C554.863 456.319 556.964 457.794 558.319 459.889C559.674 461.985 560.099 464.91 558.618 466.918C556.684 469.541 552.07 470.105 551.624 473.332C551.337 475.405 553.129 477.173 554.944 478.212C559.424 480.779 565.2 481.464 568.445 485.48C569.787 482.719 572.79 481.123 575.783 480.442C578.776 479.76 581.886 479.811 584.921 479.349C585.417 479.339 585.903 479.213 586.341 478.981C586.779 478.749 587.156 478.417 587.442 478.012C588.29 476.29 585.873 474.225 586.707 472.497C587.342 471.181 589.208 471.284 590.57 470.757C592.789 469.899 593.704 467.044 593.074 464.75C592.444 462.457 590.666 460.664 588.796 459.195C583.755 455.234 577.695 452.905 571.565 451.229C568.714 450.45 565.367 449.228 562.406 449.11C559.547 448.996 556.287 449.889 553.457 450.373Z" fill="#EEEEEE"/>
<path opacity="0.1" d="M584.428 487.455V533.463C584.428 536.035 583.406 538.502 581.587 540.321C579.768 542.14 577.301 543.162 574.729 543.162H579.703C582.275 543.162 584.742 542.14 586.561 540.321C588.38 538.502 589.402 536.035 589.402 533.463V487.455H584.428Z" fill="black"/>
<path opacity="0.1" d="M593.381 497.403C590.823 497.403 588.323 498.161 586.196 499.582C584.069 501.003 582.412 503.023 581.433 505.386C580.454 507.749 580.198 510.349 580.697 512.858C581.196 515.366 582.428 517.67 584.236 519.479C586.045 521.288 588.349 522.519 590.858 523.018C593.366 523.517 595.967 523.261 598.33 522.282C600.693 521.303 602.712 519.646 604.133 517.519C605.554 515.393 606.313 512.892 606.313 510.335C606.313 508.636 605.978 506.955 605.328 505.386C604.678 503.817 603.726 502.391 602.525 501.19C601.324 499.99 599.899 499.037 598.33 498.387C596.761 497.737 595.079 497.403 593.381 497.403ZM593.381 518.293C591.807 518.293 590.268 517.826 588.959 516.952C587.651 516.077 586.631 514.834 586.028 513.38C585.426 511.926 585.268 510.326 585.576 508.782C585.883 507.238 586.641 505.82 587.753 504.707C588.866 503.594 590.284 502.836 591.828 502.529C593.372 502.222 594.972 502.38 596.426 502.982C597.88 503.585 599.123 504.605 599.998 505.913C600.872 507.222 601.339 508.761 601.339 510.335C601.339 512.445 600.5 514.469 599.008 515.962C597.516 517.454 595.491 518.293 593.381 518.293Z" fill="black"/>
<path d="M593.381 497.403C590.823 497.403 588.323 498.161 586.196 499.582C584.069 501.003 582.412 503.023 581.433 505.386C580.454 507.749 580.198 510.349 580.697 512.858C581.196 515.366 582.428 517.67 584.236 519.479C586.045 521.288 588.349 522.519 590.858 523.018C593.366 523.517 595.967 523.261 598.33 522.282C600.693 521.303 602.712 519.646 604.133 517.519C605.554 515.393 606.313 512.892 606.313 510.335C606.313 508.636 605.978 506.955 605.328 505.386C604.678 503.817 603.726 502.391 602.525 501.19C601.324 499.99 599.899 499.037 598.33 498.387C596.761 497.737 595.079 497.403 593.381 497.403ZM593.381 518.293C591.807 518.293 590.268 517.826 588.959 516.952C587.651 516.077 586.631 514.834 586.028 513.38C585.426 511.926 585.268 510.326 585.576 508.782C585.883 507.238 586.641 505.82 587.753 504.707C588.866 503.594 590.284 502.836 591.828 502.529C593.372 502.222 594.972 502.38 596.426 502.982C597.88 503.585 599.123 504.605 599.998 505.913C600.872 507.222 601.339 508.761 601.339 510.335C601.339 512.445 600.5 514.469 599.008 515.962C597.516 517.454 595.491 518.293 593.381 518.293Z" fill="#6C63FF"/>
<path d="M322.803 474.523C327.748 474.523 331.756 470.515 331.756 465.57C331.756 460.625 327.748 456.617 322.803 456.617C317.859 456.617 313.85 460.625 313.85 465.57C313.85 470.515 317.859 474.523 322.803 474.523Z" fill="white"/>
<path opacity="0.1" d="M862.844 0H428.368V297.668H862.844V0Z" fill="#535461"/>
<g opacity="0.5">
<path opacity="0.5" d="M565.759 29.3158H472.483C469.998 29.3158 467.983 31.3305 467.983 33.8158V119.178C467.983 121.663 469.998 123.678 472.483 123.678H565.759C568.245 123.678 570.259 121.663 570.259 119.178V33.8158C570.259 31.3305 568.245 29.3158 565.759 29.3158Z" fill="url(#paint2_linear)"/>
</g>
<path d="M564.648 30.0474H473.732C471.247 30.0474 469.232 32.0621 469.232 34.5474V117.621C469.232 120.107 471.247 122.121 473.732 122.121H564.648C567.134 122.121 569.148 120.107 569.148 117.621V34.5474C569.148 32.0621 567.134 30.0474 564.648 30.0474Z" fill="#F5F5F5"/>
<path d="M489.282 45.2128H481.432C478.947 45.2128 476.932 47.2275 476.932 49.7128V55.8782C476.932 58.3634 478.947 60.3782 481.432 60.3782H489.282C491.768 60.3782 493.782 58.3634 493.782 55.8782V49.7128C493.782 47.2275 491.768 45.2128 489.282 45.2128Z" fill="#6C63FF"/>
<path d="M565.026 45.2128H499.634C499.194 45.2128 498.838 45.5695 498.838 46.0096V46.1011C498.838 46.5411 499.194 46.8978 499.634 46.8978H565.026C565.466 46.8978 565.823 46.5411 565.823 46.1011V46.0096C565.823 45.5695 565.466 45.2128 565.026 45.2128Z" fill="#E0E0E0"/>
<path d="M565.026 50.2679H499.634C499.194 50.2679 498.838 50.6246 498.838 51.0647V51.1562C498.838 51.5962 499.194 51.9529 499.634 51.9529H565.026C565.466 51.9529 565.823 51.5962 565.823 51.1562V51.0647C565.823 50.6246 565.466 50.2679 565.026 50.2679Z" fill="#E0E0E0"/>
<path d="M565.026 68.6161H476.044C475.604 68.6161 475.247 68.9728 475.247 69.4129V69.5044C475.247 69.9444 475.604 70.3012 476.044 70.3012H565.026C565.466 70.3012 565.823 69.9444 565.823 69.5044V69.4129C565.823 68.9728 565.466 68.6161 565.026 68.6161Z" fill="#E0E0E0"/>
<path d="M565.026 73.6712H476.044C475.604 73.6712 475.247 74.028 475.247 74.468V74.5595C475.247 74.9995 475.604 75.3563 476.044 75.3563H565.026C565.466 75.3563 565.823 74.9995 565.823 74.5595V74.468C565.823 74.028 565.466 73.6712 565.026 73.6712Z" fill="#E0E0E0"/>
<path d="M565.026 80.4114H476.044C475.604 80.4114 475.247 80.7681 475.247 81.2082V81.2997C475.247 81.7397 475.604 82.0964 476.044 82.0964H565.026C565.466 82.0964 565.823 81.7397 565.823 81.2997V81.2082C565.823 80.7681 565.466 80.4114 565.026 80.4114Z" fill="#E0E0E0"/>
<path d="M526.686 85.4665H476.044C475.604 85.4665 475.247 85.8232 475.247 86.2633V86.3548C475.247 86.7948 475.604 87.1516 476.044 87.1516H526.686C527.126 87.1516 527.483 86.7948 527.483 86.3548V86.2633C527.483 85.8232 527.126 85.4665 526.686 85.4665Z" fill="#E0E0E0"/>
<path d="M565.026 92.1903H476.044C475.604 92.1903 475.247 92.5471 475.247 92.9871V93.0786C475.247 93.5186 475.604 93.8754 476.044 93.8754H565.026C565.466 93.8754 565.823 93.5186 565.823 93.0786V92.9871C565.823 92.5471 565.466 92.1903 565.026 92.1903Z" fill="#E0E0E0"/>
<path d="M565.026 97.2455H476.044C475.604 97.2455 475.247 97.6022 475.247 98.0422V98.1337C475.247 98.5738 475.604 98.9305 476.044 98.9305H565.026C565.466 98.9305 565.823 98.5738 565.823 98.1337V98.0422C565.823 97.6022 565.466 97.2455 565.026 97.2455Z" fill="#E0E0E0"/>
<path d="M565.026 103.986H476.044C475.604 103.986 475.247 104.342 475.247 104.782V104.874C475.247 105.314 475.604 105.671 476.044 105.671H565.026C565.466 105.671 565.823 105.314 565.823 104.874V104.782C565.823 104.342 565.466 103.986 565.026 103.986Z" fill="#E0E0E0"/>
<path d="M526.686 109.041H476.044C475.604 109.041 475.247 109.397 475.247 109.838V109.929C475.247 110.369 475.604 110.726 476.044 110.726H526.686C527.126 110.726 527.483 110.369 527.483 109.929V109.838C527.483 109.397 527.126 109.041 526.686 109.041Z" fill="#E0E0E0"/>
<g opacity="0.5">
<path opacity="0.5" d="M581.195 51.1214H487.919C485.434 51.1214 483.419 53.1361 483.419 55.6214V140.984C483.419 143.469 485.434 145.484 487.919 145.484H581.195C583.68 145.484 585.695 143.469 585.695 140.984V55.6214C585.695 53.1361 583.68 51.1214 581.195 51.1214Z" fill="url(#paint3_linear)"/>
</g>
<path d="M580.084 51.853H489.167C486.682 51.853 484.667 53.8677 484.667 56.353V139.427C484.667 141.912 486.682 143.927 489.167 143.927H580.084C582.569 143.927 584.584 141.912 584.584 139.427V56.353C584.584 53.8677 582.569 51.853 580.084 51.853Z" fill="white"/>
<path d="M504.718 67.0183H496.867C494.382 67.0183 492.367 69.0331 492.367 71.5183V77.6837C492.367 80.169 494.382 82.1837 496.867 82.1837H504.718C507.203 82.1837 509.218 80.169 509.218 77.6837V71.5183C509.218 69.0331 507.203 67.0183 504.718 67.0183Z" fill="#6C63FF"/>
<path d="M580.462 67.0183H515.07C514.63 67.0183 514.273 67.3751 514.273 67.8151V67.9066C514.273 68.3467 514.63 68.7034 515.07 68.7034H580.462C580.902 68.7034 581.258 68.3467 581.258 67.9066V67.8151C581.258 67.3751 580.902 67.0183 580.462 67.0183Z" fill="#E0E0E0"/>
<path d="M580.462 72.0735H515.07C514.63 72.0735 514.273 72.4302 514.273 72.8702V72.9617C514.273 73.4018 514.63 73.7585 515.07 73.7585H580.462C580.902 73.7585 581.258 73.4018 581.258 72.9617V72.8702C581.258 72.4302 580.902 72.0735 580.462 72.0735Z" fill="#E0E0E0"/>
<path d="M580.462 90.4217H491.479C491.039 90.4217 490.682 90.7784 490.682 91.2185V91.3099C490.682 91.75 491.039 92.1067 491.479 92.1067H580.462C580.902 92.1067 581.258 91.75 581.258 91.3099V91.2185C581.258 90.7784 580.902 90.4217 580.462 90.4217Z" fill="#E0E0E0"/>
<path d="M580.462 95.4768H491.479C491.039 95.4768 490.682 95.8335 490.682 96.2736V96.3651C490.682 96.8051 491.039 97.1618 491.479 97.1618H580.462C580.902 97.1618 581.258 96.8051 581.258 96.3651V96.2736C581.258 95.8335 580.902 95.4768 580.462 95.4768Z" fill="#E0E0E0"/>
<path d="M580.462 102.217H491.479C491.039 102.217 490.682 102.574 490.682 103.014V103.105C490.682 103.545 491.039 103.902 491.479 103.902H580.462C580.902 103.902 581.258 103.545 581.258 103.105V103.014C581.258 102.574 580.902 102.217 580.462 102.217Z" fill="#E0E0E0"/>
<path d="M542.122 107.272H491.479C491.039 107.272 490.682 107.629 490.682 108.069V108.16C490.682 108.6 491.039 108.957 491.479 108.957H542.122C542.562 108.957 542.919 108.6 542.919 108.16V108.069C542.919 107.629 542.562 107.272 542.122 107.272Z" fill="#E0E0E0"/>
<path d="M580.462 113.996H491.479C491.039 113.996 490.682 114.353 490.682 114.793V114.884C490.682 115.324 491.039 115.681 491.479 115.681H580.462C580.902 115.681 581.258 115.324 581.258 114.884V114.793C581.258 114.353 580.902 113.996 580.462 113.996Z" fill="#E0E0E0"/>
<path d="M580.462 119.051H491.479C491.039 119.051 490.682 119.408 490.682 119.848V119.939C490.682 120.379 491.039 120.736 491.479 120.736H580.462C580.902 120.736 581.258 120.379 581.258 119.939V119.848C581.258 119.408 580.902 119.051 580.462 119.051Z" fill="#E0E0E0"/>
<path d="M580.462 125.791H491.479C491.039 125.791 490.682 126.148 490.682 126.588V126.679C490.682 127.119 491.039 127.476 491.479 127.476H580.462C580.902 127.476 581.258 127.119 581.258 126.679V126.588C581.258 126.148 580.902 125.791 580.462 125.791Z" fill="#E0E0E0"/>
<path d="M542.122 130.846H491.479C491.039 130.846 490.682 131.203 490.682 131.643V131.735C490.682 132.175 491.039 132.531 491.479 132.531H542.122C542.562 132.531 542.919 132.175 542.919 131.735V131.643C542.919 131.203 542.562 130.846 542.122 130.846Z" fill="#E0E0E0"/>
<path d="M684.295 65.3969H627.965V119.518H684.295V65.3969Z" fill="url(#paint4_linear)"/>
<path d="M683.411 66.7223H628.848V118.414H683.411V66.7223Z" fill="#F5F5F5"/>
<g opacity="0.6">
<path opacity="0.6" d="M666.402 97.4279H646.741V100.079H666.402V97.4279Z" fill="#6C63FF"/>
</g>
<path d="M672.919 102.288H639.341V104.939H672.919V102.288Z" fill="#BDBDBD"/>
<g opacity="0.5">
<path opacity="0.5" d="M832.931 18.0405H710.096V162.365H832.931V18.0405Z" fill="url(#paint5_linear)"/>
</g>
<path d="M830.318 20.3636H713.871V159.17H830.318V20.3636Z" fill="white"/>
<path d="M813.185 81.2636H731.295V84.7483H813.185V81.2636Z" fill="#E0E0E0"/>
<path d="M813.185 104.204H731.295V107.689H813.185V104.204Z" fill="#E0E0E0"/>
<path d="M813.185 110.303H731.295V113.787H813.185V110.303Z" fill="#E0E0E0"/>
<path d="M765.851 98.1063H731.295V101.591H765.851V98.1063Z" fill="#E0E0E0"/>
<path opacity="0.6" d="M813.185 98.1063H787.34V101.591H813.185V98.1063Z" fill="#3AD29F"/>
<path d="M785.888 124.532H760.043V128.016H785.888V124.532Z" fill="#6C63FF"/>
<g opacity="0.5">
<path opacity="0.5" d="M711.412 202.956H638.426V262.903H711.412V202.956Z" fill="url(#paint6_linear)"/>
</g>
<path d="M710.42 204.089H639.277V261.911H710.42V204.089Z" fill="#F2F2F2"/>
<path d="M710.42 204.089H639.277V216.986H710.42V204.089Z" fill="#6C63FF"/>
<path opacity="0.1" d="M710.42 204.089H639.277V216.986H710.42V204.089Z" fill="black"/>
<path d="M704.751 221.663H644.945V229.174H704.751V221.663Z" fill="#E0E0E0"/>
<path d="M688.595 234.843H644.945V237.394H688.595V234.843Z" fill="#E0E0E0"/>
<path d="M673.29 239.236H644.945V241.787H673.29V239.236Z" fill="#E0E0E0"/>
<path d="M682.36 243.629H644.945V246.18H682.36V243.629Z" fill="#E0E0E0"/>
<path d="M688.595 248.023H644.945V250.574H688.595V248.023Z" fill="#E0E0E0"/>
<path d="M659.543 252.416H644.945V254.967H659.543V252.416Z" fill="#E0E0E0"/>
<g opacity="0.5">
<path opacity="0.5" d="M683.191 180.968H592.726V255.272H683.191V180.968Z" fill="url(#paint7_linear)"/>
</g>
<path d="M681.961 182.374H593.78V254.042H681.961V182.374Z" fill="white"/>
<path d="M681.961 182.374H593.78V198.359H681.961V182.374Z" fill="#6C63FF"/>
<path d="M674.935 204.155H600.807V213.465H674.935V204.155Z" fill="#F5F5F5"/>
<path d="M654.91 220.492H600.807V223.653H654.91V220.492Z" fill="#E0E0E0"/>
<path d="M635.938 225.937H600.807V229.099H635.938V225.937Z" fill="#E0E0E0"/>
<path d="M647.181 231.382H600.807V234.544H647.181V231.382Z" fill="#E0E0E0"/>
<path d="M654.91 236.828H600.807V239.99H654.91V236.828Z" fill="#E0E0E0"/>
<path d="M618.9 242.273H600.807V245.435H618.9V242.273Z" fill="#E0E0E0"/>
<path d="M625.75 207.317H604.671V210.128H625.75V207.317Z" fill="#69F0AE"/>
<path opacity="0.1" d="M469.373 378.286C476.119 378.286 481.587 372.818 481.587 366.072C481.587 359.326 476.119 353.858 469.373 353.858C462.627 353.858 457.159 359.326 457.159 366.072C457.159 372.818 462.627 378.286 469.373 378.286Z" fill="#535461"/>
<path opacity="0.1" d="M492.057 339.026C498.802 339.026 504.271 333.558 504.271 326.812C504.271 320.066 498.802 314.598 492.057 314.598C485.311 314.598 479.842 320.066 479.842 326.812C479.842 333.558 485.311 339.026 492.057 339.026Z" fill="#535461"/>
</g>
<defs>
<linearGradient id="paint0_linear" x1="88813.3" y1="86259.7" x2="88813.3" y2="61263.7" gradientUnits="userSpaceOnUse">
<stop stop-color="#808080" stop-opacity="0.25"/>
<stop offset="0.53514" stop-color="#808080" stop-opacity="0.12"/>
<stop offset="1" stop-color="#808080" stop-opacity="0.1"/>
</linearGradient>
<linearGradient id="paint1_linear" x1="51577.7" y1="43731.4" x2="51577.7" y2="40008.9" gradientUnits="userSpaceOnUse">
<stop stop-color="#808080" stop-opacity="0.25"/>
<stop offset="0.53514" stop-color="#808080" stop-opacity="0.12"/>
<stop offset="1" stop-color="#808080" stop-opacity="0.1"/>
</linearGradient>
<linearGradient id="paint2_linear" x1="53561.6" y1="11699.9" x2="53561.6" y2="2795.62" gradientUnits="userSpaceOnUse">
<stop stop-color="#808080" stop-opacity="0.25"/>
<stop offset="0.53514" stop-color="#808080" stop-opacity="0.12"/>
<stop offset="1" stop-color="#808080" stop-opacity="0.1"/>
</linearGradient>
<linearGradient id="paint3_linear" x1="55155.6" y1="13779.3" x2="55155.6" y2="4875.05" gradientUnits="userSpaceOnUse">
<stop stop-color="#808080" stop-opacity="0.25"/>
<stop offset="0.53514" stop-color="#808080" stop-opacity="0.12"/>
<stop offset="1" stop-color="#808080" stop-opacity="0.1"/>
</linearGradient>
<linearGradient id="paint4_linear" x1="37588.1" y1="6533.91" x2="37588.1" y2="3604.77" gradientUnits="userSpaceOnUse">
<stop stop-color="#808080" stop-opacity="0.25"/>
<stop offset="0.53514" stop-color="#808080" stop-opacity="0.12"/>
<stop offset="1" stop-color="#808080" stop-opacity="0.1"/>
</linearGradient>
<linearGradient id="paint5_linear" x1="95479.1" y1="23451.2" x2="95479.1" y2="2621.72" gradientUnits="userSpaceOnUse">
<stop stop-color="#808080" stop-opacity="0.25"/>
<stop offset="0.53514" stop-color="#808080" stop-opacity="0.12"/>
<stop offset="1" stop-color="#808080" stop-opacity="0.1"/>
</linearGradient>
<linearGradient id="paint6_linear" x1="49898.1" y1="15963.4" x2="49898.1" y2="12369.7" gradientUnits="userSpaceOnUse">
<stop stop-color="#808080" stop-opacity="0.25"/>
<stop offset="0.53514" stop-color="#808080" stop-opacity="0.12"/>
<stop offset="1" stop-color="#808080" stop-opacity="0.1"/>
</linearGradient>
<linearGradient id="paint7_linear" x1="58305.1" y1="19148.6" x2="58305.1" y2="13627.6" gradientUnits="userSpaceOnUse">
<stop stop-color="#808080" stop-opacity="0.25"/>
<stop offset="0.53514" stop-color="#808080" stop-opacity="0.12"/>
<stop offset="1" stop-color="#808080" stop-opacity="0.1"/>
</linearGradient>
<clipPath id="clip0">
<rect width="862.844" height="574" fill="white"/>
</clipPath>
</defs>
</svg>
